<svg xmlns="http://www.w3.org/2000/svg" width="1200" height="720" viewBox="0 0 1200 720">
  <defs>
    <clipPath id="mapClip"><rect x="165" y="120" width="870" height="480" rx="38"/></clipPath>
  </defs>
  
  <rect x="165" y="120" width="870" height="480" rx="38" fill="#F4F7FA" stroke="#D9E2EA" stroke-width="4"/>
  <g clip-path="url(#mapClip)">
    <rect x="165" y="120" width="870" height="480" fill="#F4F7FA"/>
    <path d="M210 140 L210 600" stroke="#C9D5DF" stroke-width="2" opacity="0.46"/><path d="M290 140 L290 600" stroke="#C9D5DF" stroke-width="2" opacity="0.46"/><path d="M370 140 L370 600" stroke="#C9D5DF" stroke-width="2" opacity="0.46"/><path d="M450 140 L450 600" stroke="#C9D5DF" stroke-width="2" opacity="0.46"/><path d="M530 140 L530 600" stroke="#C9D5DF" stroke-width="2" opacity="0.46"/><path d="M610 140 L610 600" stroke="#C9D5DF" stroke-width="2" opacity="0.46"/><path d="M690 140 L690 600" stroke="#C9D5DF" stroke-width="2" opacity="0.46"/><path d="M770 140 L770 600" stroke="#C9D5DF" stroke-width="2" opacity="0.46"/><path d="M850 140 L850 600" stroke="#C9D5DF" stroke-width="2" opacity="0.46"/><path d="M930 140 L930 600" stroke="#C9D5DF" stroke-width="2" opacity="0.46"/><path d="M170 170 L1030 170" stroke="#C9D5DF" stroke-width="2" opacity="0.42"/><path d="M170 240 L1030 240" stroke="#C9D5DF" stroke-width="2" opacity="0.42"/><path d="M170 310 L1030 310" stroke="#C9D5DF" stroke-width="2" opacity="0.42"/><path d="M170 380 L1030 380" stroke="#C9D5DF" stroke-width="2" opacity="0.42"/><path d="M170 450 L1030 450" stroke="#C9D5DF" stroke-width="2" opacity="0.42"/><path d="M170 520 L1030 520" stroke="#C9D5DF" stroke-width="2" opacity="0.42"/>
    <path d="M170 316 C280 290, 370 304, 470 334 S690 378, 835 344 S960 298, 1030 315" fill="none" stroke="#FFFFFF" stroke-width="28" stroke-linecap="round" opacity="0.96"/><path d="M170 316 C280 290, 370 304, 470 334 S690 378, 835 344 S960 298, 1030 315" fill="none" stroke="#C9D5DF" stroke-width="3" stroke-linecap="round" opacity="0.55"/><path d="M475 142 C450 230, 464 302, 520 373 C575 443, 585 520, 562 600" fill="none" stroke="#FFFFFF" stroke-width="24" stroke-linecap="round" opacity="0.93"/><path d="M475 142 C450 230, 464 302, 520 373 C575 443, 585 520, 562 600" fill="none" stroke="#C9D5DF" stroke-width="3" stroke-linecap="round" opacity="0.52"/><path d="M765 145 C742 232, 755 286, 810 356 C858 417, 858 508, 840 600" fill="none" stroke="#FFFFFF" stroke-width="24" stroke-linecap="round" opacity="0.93"/><path d="M765 145 C742 232, 755 286, 810 356 C858 417, 858 508, 840 600" fill="none" stroke="#C9D5DF" stroke-width="3" stroke-linecap="round" opacity="0.52"/><path d="M250 515 L1000 442" fill="none" stroke="#FFFFFF" stroke-width="22" stroke-linecap="round" opacity="0.88"/><path d="M250 515 L1000 442" fill="none" stroke="#C9D5DF" stroke-width="3" stroke-linecap="round" opacity="0.48"/>
    <rect x="250" y="190" width="78" height="48" rx="9" fill="#FFFFFF" stroke="#D9E2EA" stroke-width="2" opacity="0.9"/><rect x="350" y="205" width="68" height="38" rx="9" fill="#FFFFFF" stroke="#D9E2EA" stroke-width="2" opacity="0.9"/><rect x="610" y="178" width="98" height="54" rx="9" fill="#FFFFFF" stroke="#D9E2EA" stroke-width="2" opacity="0.9"/><rect x="862" y="194" width="88" height="50" rx="9" fill="#FFFFFF" stroke="#D9E2EA" stroke-width="2" opacity="0.9"/><rect x="235" y="380" width="82" height="54" rx="9" fill="#FFFFFF" stroke="#D9E2EA" stroke-width="2" opacity="0.9"/><rect x="360" y="362" width="62" height="42" rx="9" fill="#FFFFFF" stroke="#D9E2EA" stroke-width="2" opacity="0.9"/><rect x="662" y="478" width="90" height="52" rx="9" fill="#FFFFFF" stroke="#D9E2EA" stroke-width="2" opacity="0.9"/><rect x="913" y="482" width="72" height="42" rx="9" fill="#FFFFFF" stroke="#D9E2EA" stroke-width="2" opacity="0.9"/><rect x="225" y="465" width="58" height="38" rx="9" fill="#FFFFFF" stroke="#D9E2EA" stroke-width="2" opacity="0.9"/><rect x="945" y="250" width="56" height="36" rx="9" fill="#FFFFFF" stroke="#D9E2EA" stroke-width="2" opacity="0.9"/><rect x="595" y="520" width="46" height="34" rx="9" fill="#FFFFFF" stroke="#D9E2EA" stroke-width="2" opacity="0.9"/><rect x="690" y="246" width="52" height="42" rx="9" fill="#FFFFFF" stroke="#D9E2EA" stroke-width="2" opacity="0.9"/>
    <polygon points="303,258 405,238 448,294 388,348 295,328" fill="#E9F1F6" stroke="#0B2A45" stroke-width="5" stroke-linejoin="round" opacity="0.94"/><polygon points="312,267 399,252 431,294 382,331 309,316" fill="none" stroke="#19C6B3" stroke-width="3" stroke-dasharray="9 9" stroke-linejoin="round" opacity="0.92"/><polygon points="716,216 808,196 875,250 842,322 744,311 690,268" fill="#19C6B3" opacity="0.15" stroke="#0E9E97" stroke-width="5" stroke-linejoin="round"/><polygon points="734,230 802,216 850,255 827,299 754,292 715,265" fill="none" stroke="#19C6B3" stroke-width="3" stroke-dasharray="8 8" stroke-linejoin="round"/><polygon points="452,440 550,414 626,465 600,548 483,558 422,503" fill="#F2F5F8" stroke="#123A5A" stroke-width="5" stroke-linejoin="round" opacity="0.94"/><polygon points="465,452 545,430 605,470 586,530 493,536 445,500" fill="none" stroke="#19C6B3" stroke-width="3" stroke-dasharray="8 8" stroke-linejoin="round" opacity="0.82"/><polygon points="844,402 931,385 986,429 960,492 868,498 814,454" fill="#EAF6F5" stroke="#0E9E97" stroke-width="4" stroke-linejoin="round" opacity="0.92"/><polygon points="858,414 926,401 966,432 946,477 876,481 837,452" fill="none" stroke="#19C6B3" stroke-width="3" stroke-dasharray="7 8" stroke-linejoin="round" opacity="0.85"/>
    <path d="M372 295 C470 238, 680 198, 786 257" fill="none" stroke="#0B2A45" stroke-width="3" stroke-dasharray="10 12" opacity="0.22"/><path d="M516 491 C640 455, 770 430, 904 443" fill="none" stroke="#0B2A45" stroke-width="3" stroke-dasharray="10 12" opacity="0.22"/><path d="M786 257 C820 320, 865 380, 904 443" fill="none" stroke="#0E9E97" stroke-width="3" stroke-dasharray="8 12" opacity="0.26"/>
    <path d="M 600.00 355.00 L 784.30 189.06 A 248.00 248.00 0 0 1 818.97 471.43 Z" fill="#19C6B3" opacity="0.17"/><circle cx="600" cy="355" r="72" fill="none" stroke="#19C6B3" stroke-width="4" opacity="0.60"/><circle cx="600" cy="355" r="145" fill="none" stroke="#19C6B3" stroke-width="4" opacity="0.43"/><circle cx="600" cy="355" r="220" fill="none" stroke="#19C6B3" stroke-width="4" opacity="0.28"/><path d="M600 355 L819.0 471.4" stroke="#0E9E97" stroke-width="6" stroke-linecap="round" opacity="0.72"/><path d="M362 355 L838 355" stroke="#19C6B3" stroke-width="2" stroke-dasharray="8 12" opacity="0.25"/><path d="M600 117 L600 593" stroke="#19C6B3" stroke-width="2" stroke-dasharray="8 12" opacity="0.25"/><circle cx="600" cy="355" r="17" fill="#0B2A45" opacity="0.96"/><circle cx="600" cy="355" r="7" fill="#19C6B3"/>
    <circle cx="372" cy="295" r="20" fill="none" stroke="#19C6B3" stroke-width="3" opacity="0.18"/><circle cx="372" cy="295" r="10" fill="#19C6B3" opacity="0.95"/><circle cx="369" cy="292" r="3.3333333333333335" fill="#FFFFFF" opacity="0.62"/><circle cx="786" cy="257" r="21" fill="none" stroke="#19C6B3" stroke-width="3" opacity="0.18"/><circle cx="786" cy="257" r="11" fill="#19C6B3" opacity="0.95"/><circle cx="783" cy="254" r="3.6666666666666665" fill="#FFFFFF" opacity="0.62"/><circle cx="516" cy="491" r="20" fill="none" stroke="#19C6B3" stroke-width="3" opacity="0.18"/><circle cx="516" cy="491" r="10" fill="#19C6B3" opacity="0.95"/><circle cx="513" cy="488" r="3.3333333333333335" fill="#FFFFFF" opacity="0.62"/><circle cx="904" cy="443" r="19" fill="none" stroke="#19C6B3" stroke-width="3" opacity="0.18"/><circle cx="904" cy="443" r="9" fill="#19C6B3" opacity="0.95"/><circle cx="901" cy="440" r="3.0" fill="#FFFFFF" opacity="0.62"/><circle cx="474" cy="232" r="17" fill="none" stroke="#0B2A45" stroke-width="3" opacity="0.18"/><circle cx="474" cy="232" r="7" fill="#0B2A45" opacity="0.95"/><circle cx="471" cy="229" r="2.3333333333333335" fill="#FFFFFF" opacity="0.62"/><circle cx="691" cy="432" r="16" fill="none" stroke="#0B2A45" stroke-width="3" opacity="0.18"/><circle cx="691" cy="432" r="6" fill="#0B2A45" opacity="0.95"/><circle cx="688" cy="429" r="2" fill="#FFFFFF" opacity="0.62"/><circle cx="756" cy="500" r="16" fill="none" stroke="#0B2A45" stroke-width="3" opacity="0.18"/><circle cx="756" cy="500" r="6" fill="#0B2A45" opacity="0.95"/><circle cx="753" cy="497" r="2" fill="#FFFFFF" opacity="0.62"/><circle cx="292" cy="458" r="16" fill="none" stroke="#0B2A45" stroke-width="3" opacity="0.18"/><circle cx="292" cy="458" r="6" fill="#0B2A45" opacity="0.95"/><circle cx="289" cy="455" r="2" fill="#FFFFFF" opacity="0.62"/>
  </g>
  <rect x="165" y="120" width="870" height="480" rx="38" fill="none" stroke="#D9E2EA" stroke-width="4"/>
  <circle cx="187" cy="188" r="7" fill="#19C6B3" opacity="0.75"/><circle cx="1012" cy="576" r="8" fill="#19C6B3" opacity="0.65"/><circle cx="1026" cy="178" r="10" fill="#0B2A45" opacity="0.16"/><circle cx="156" cy="533" r="12" fill="#0B2A45" opacity="0.12"/>
</svg>